<?xml version="1.0" standalone="no"?>
<!DOCTYPE svg PUBLIC "-//W3C//DTD SVG 20010904//EN"
 "http://www.w3.org/TR/2001/REC-SVG-20010904/DTD/svg10.dtd">
<svg version="1.0" xmlns="http://www.w3.org/2000/svg"
 width="512.000000pt" height="512.000000pt" viewBox="0 0 512.000000 512.000000"
 preserveAspectRatio="xMidYMid meet">

<g transform="translate(0.000000,512.000000) scale(0.100000,-0.100000)"
fill="#000000" stroke="none">
<path d="M1758 4628 c-3 -486 -3 -494 -26 -549 -30 -76 -83 -141 -149 -185
-104 -69 -95 -68 -636 -72 l-487 -3 2 -1507 3 -1507 24 -52 c13 -29 44 -72 70
-96 89 -84 -52 -78 1721 -75 l1575 3 49 25 c27 14 66 44 87 68 75 86 69 -97
69 2172 0 2260 5 2085 -67 2169 -19 23 -58 54 -87 69 l-51 27 -1047 3 -1047 2
-3 -492z m1644 -1458 c32 -34 38 -48 38 -83 0 -24 -8 -56 -20 -74 -40 -67 27
-63 -1102 -63 -985 0 -1024 1 -1052 19 -83 55 -88 161 -9 220 28 20 32 20
1067 21 l1039 0 39 -40z m-25 -701 c90 -56 83 -183 -12 -229 -40 -20 -65 -20
-1046 -20 -936 0 -1006 1 -1039 18 -73 36 -100 122 -60 187 42 68 -24 65 1104
65 1017 0 1019 0 1053 -21z m-1000 -676 c97 -46 97 -190 0 -236 -31 -15 -90
-17 -552 -17 -573 0 -564 -1 -605 65 -39 63 -17 145 48 183 37 21 43 22 555
22 464 0 523 -2 554 -17z"/>
<path d="M962 4648 c-255 -255 -470 -476 -479 -492 -38 -72 12 -158 99 -171
24 -3 221 -5 438 -3 355 3 399 5 435 21 51 23 91 61 118 112 21 39 22 51 25
469 2 312 0 438 -9 458 -18 44 -59 68 -115 68 l-48 0 -464 -462z"/>
<path d="M4220 2667 c0 -2045 4 -1914 -56 -2022 -36 -63 -114 -140 -174 -170
-113 -57 -45 -55 -1547 -55 l-1383 0 0 -93 c0 -59 6 -111 16 -140 20 -60 79
-126 140 -157 l49 -25 1570 -3 c1374 -2 1575 0 1621 13 68 20 144 87 175 157
l24 53 0 2040 c0 1987 -1 2041 -19 2090 -11 27 -39 71 -64 97 -62 67 -124 88
-252 88 l-100 0 0 -1873z"/>
</g>
</svg>
