<?xml version="1.0" standalone="no"?>
<!DOCTYPE svg PUBLIC "-//W3C//DTD SVG 20010904//EN"
 "http://www.w3.org/TR/2001/REC-SVG-20010904/DTD/svg10.dtd">
<svg version="1.0" xmlns="http://www.w3.org/2000/svg"
 width="512.000000pt" height="512.000000pt" viewBox="0 0 512.000000 512.000000"
 preserveAspectRatio="xMidYMid meet">

<g transform="translate(0.000000,512.000000) scale(0.100000,-0.100000)"
fill="#000000" stroke="none">
<path d="M401 4854 c-83 -22 -168 -73 -236 -140 -68 -67 -103 -120 -137 -210
l-23 -59 -3 -1363 c-3 -1495 -5 -1427 57 -1550 53 -105 141 -191 250 -246 106
-54 128 -56 864 -56 641 0 678 -1 673 -17 -3 -10 -37 -180 -76 -378 -39 -198
-73 -368 -76 -377 -5 -17 -27 -18 -278 -18 l-273 0 -26 -25 c-42 -42 -42 -97
0 -139 l26 -26 1417 0 1417 0 26 25 c42 42 42 97 0 139 l-26 26 -273 0 c-251
0 -273 1 -278 18 -3 9 -37 179 -76 377 -39 198 -73 368 -76 378 -5 16 32 17
673 17 736 0 758 2 864 56 109 55 197 141 250 246 62 123 60 55 57 1550 l-3
1363 -23 59 c-12 33 -34 80 -48 104 -38 65 -141 162 -211 199 -126 68 39 63
-2278 62 -1801 0 -2108 -2 -2154 -15z m4234 -185 c112 -21 200 -86 251 -186
l29 -58 3 -1102 2 -1103 -2360 0 -2360 0 0 95 0 95 295 0 c336 0 355 3 381 65
14 33 13 40 -3 73 -30 61 -36 62 -371 62 l-302 0 2 908 3 907 24 50 c50 100
136 169 241 191 76 17 4078 19 4165 3z m283 -2816 c-3 -157 -5 -172 -29 -224
-34 -72 -96 -134 -168 -168 l-56 -26 -2105 0 -2105 0 -56 26 c-32 15 -76 46
-99 69 -23 23 -54 67 -69 99 -24 52 -26 67 -29 224 l-3 167 2361 0 2361 0 -3
-167z m-1843 -645 c25 -104 151 -759 147 -763 -7 -7 -1317 -7 -1324 0 -4 4
122 659 147 763 l5 22 510 0 510 0 5 -22z"/>
<path d="M2318 4251 c-30 -27 -33 -34 -36 -105 -7 -138 20 -196 93 -196 78 0
105 41 105 160 0 93 -17 141 -56 159 -40 18 -72 13 -106 -18z"/>
<path d="M1944 4104 c-35 -17 -54 -50 -54 -94 0 -35 101 -148 155 -174 65 -31
135 14 135 86 0 35 -7 48 -62 105 -55 57 -108 94 -135 93 -4 0 -22 -7 -39 -16z"/>
<path d="M2735 4106 c-16 -7 -58 -43 -92 -80 -54 -57 -63 -72 -63 -104 0 -42
25 -77 67 -93 43 -16 86 6 157 82 56 58 66 75 66 105 0 45 -23 80 -62 93 -38
13 -36 13 -73 -3z"/>
<path d="M2311 3736 c-28 -15 -50 -52 -51 -83 0 -22 193 -872 211 -930 20 -61
86 -90 142 -62 12 6 61 50 109 97 l87 86 114 -111 c122 -120 153 -136 204
-109 15 8 81 68 146 134 112 114 117 121 117 161 0 41 -5 48 -115 160 l-114
117 70 70 c89 86 129 140 129 171 0 37 -26 79 -57 91 -30 12 -937 222 -956
222 -7 -1 -23 -7 -36 -14z m474 -287 c149 -34 272 -63 274 -65 3 -3 -25 -35
-61 -72 -109 -111 -106 -127 45 -279 l111 -113 -34 -35 -34 -35 -111 109 c-60
61 -122 115 -137 120 -41 16 -74 -1 -149 -75 -65 -64 -67 -65 -73 -41 -14 56
-126 546 -126 551 0 3 6 3 13 1 6 -2 134 -32 282 -66z"/>
<path d="M1756 3694 c-39 -40 -37 -103 5 -138 29 -24 37 -26 134 -26 93 0 107
2 130 23 18 15 28 36 32 64 5 37 2 45 -25 73 -30 30 -31 30 -140 30 -105 0
-110 -1 -136 -26z"/>
<path d="M2045 3416 c-16 -7 -58 -43 -92 -80 -52 -55 -63 -73 -63 -101 0 -50
44 -97 92 -97 48 0 65 10 136 87 52 55 62 72 62 101 0 45 -23 80 -62 93 -38
13 -36 13 -73 -3z"/>
<path d="M1044 2600 c-50 -20 -71 -101 -39 -146 38 -55 130 -51 160 6 45 87
-32 176 -121 140z"/>
<path d="M2472 1894 c-82 -41 -124 -132 -101 -218 24 -89 97 -146 189 -146
204 0 270 273 88 364 -66 33 -110 33 -176 0z"/>
</g>
</svg>
